<?xml version="1.0" encoding="utf-8"?>
<svg xmlns="http://www.w3.org/2000/svg" viewBox="0 0 500 500" xmlns:bx="https://boxy-svg.com"
    width="500px" height="500px">
    <rect width="500" height="500" rx="100" ry="100" fill="white" style="fill:white;fill-opacity:1;" />
    <path style="padding: 10px; fill: none; stroke-width: 50;" stroke="black"
        d="M 271.393 205.053 C 305.249 219.618 344.502 203.982 359.067 170.125 C 373.633 136.27 357.995 97.017 324.139 82.45 C 290.283 67.885 251.029 83.521 236.464 117.378 C 221.899 151.233 237.537 190.486 271.393 205.053 Z M 271.393 205.053 L 140.98 148.945 M 87.89 271.404 L 149.667 297.983 C 183.522 312.549 222.775 296.911 237.343 263.055 C 251.908 229.198 236.269 189.945 202.413 175.381 L 140.637 148.802 M 393.92 257.773 L 332.146 231.194 C 298.288 216.629 259.035 232.265 244.47 266.122 L 244.507 434.893" />
</svg>
